<svg width="91" height="83" viewBox="0 0 91 83" fill="none" xmlns="http://www.w3.org/2000/svg">
<path d="M78.5 12.5C66.1667 4.00001 35.1 -7.89999 9.5 12.5L1 48.5L20.5 69L55.5 81.5L78.5 69L89.5 36L78.5 12.5Z" fill="white" stroke="white"/>
<path d="M48.3398 36.6406C47.9414 36.9219 47.3555 37.3789 46.582 38.0117C46.1367 38.3867 45.7734 38.9141 45.4922 39.5938C45.4453 39.6875 45.2461 40.2969 44.8945 41.4219C44.8477 41.5625 44.8711 42.1484 44.9648 43.1797H42.4688C42.3516 42.2188 42.293 41.457 42.293 40.8945C42.293 39.7695 42.5391 38.7969 43.0312 37.9766C43.4297 37.2734 44.1211 36.5117 45.1055 35.6914C46.0898 34.8711 46.7109 34.2969 46.9688 33.9688C47.6484 33.1953 47.9883 32.4336 47.9883 31.6836C47.9883 30.6289 47.6484 29.7617 46.9688 29.082C46.3125 28.4023 45.457 28.0625 44.4023 28.0625C42.1523 28.0625 40.6172 29.3164 39.7969 31.8242L37.3711 30.5586C38.7305 27.1836 41.0391 25.4961 44.2969 25.4961C46.125 25.4961 47.6602 26.082 48.9023 27.2539C50.168 28.4258 50.8008 29.9141 50.8008 31.7188C50.8008 33.6641 49.9805 35.3047 48.3398 36.6406ZM43.875 50.457C43.2891 50.457 42.8086 50.2695 42.4336 49.8945C42.0586 49.4961 41.8711 49.0039 41.8711 48.418C41.8711 47.832 42.0586 47.3398 42.4336 46.9414C42.832 46.543 43.3125 46.3438 43.875 46.3438C44.4844 46.3438 44.9883 46.543 45.3867 46.9414C45.8086 47.3164 46.0195 47.8086 46.0195 48.418C46.0195 49.0273 45.8086 49.5195 45.3867 49.8945C44.9883 50.2695 44.4844 50.457 43.875 50.457Z" fill="#B00AFF" fill-opacity="0.54"/>
</svg>
