<svg width="235" height="171" viewBox="0 0 235 171" fill="none" xmlns="http://www.w3.org/2000/svg">
<path d="M127.172 66.8052C127.172 64.7104 127.084 63.1797 126.909 62.2129H125.371C124.492 62.2129 123.811 62.3008 123.327 62.4766C122.551 62.7402 121.928 62.9819 121.459 63.2017L121.13 78.7363L116.362 79C116.318 73.3604 116.237 69.0977 116.12 66.2119C115.944 62.3301 115.856 58.9756 115.856 56.1484C115.856 54.2441 115.893 51.4243 115.966 47.689L121.218 46.5903L121.459 60.499L124.953 57.4009H129.831C130.373 57.4009 130.871 57.606 131.325 58.0161C132.131 58.7632 132.548 59.4224 132.578 59.9937C132.607 60.5649 132.622 61.1436 132.622 61.7295V63.4434C132.622 65.4062 132.592 66.8125 132.534 67.6621L131.853 79.769L126.975 80.582L127.172 66.8052ZM138.049 64.3662C138.049 62.4033 138.254 61.2681 138.664 60.9604C139.074 60.6528 139.536 60.3452 140.048 60.0376C140.561 59.7153 141.125 59.4004 141.74 59.0928C142.355 58.7852 142.993 58.4922 143.652 58.2139C144.326 57.9355 144.985 57.6865 145.629 57.4668C147.006 56.998 148.032 56.7637 148.706 56.7637C149.394 56.7637 149.951 56.8003 150.375 56.8735C150.8 56.9321 151.188 57.0347 151.54 57.1812C152.346 57.5181 152.8 58.0088 152.902 58.6533C153.386 61.7148 153.627 65.3623 153.627 69.5957V70.8921L143.103 71.0239V73.8804C144.245 74.1587 145.607 74.415 147.189 74.6494L150.969 75.2646C151.936 75.4111 152.924 75.5796 153.935 75.77L152.639 80.582C148.61 79.9521 144.333 78.9341 139.807 77.5278C138.767 77.1909 138.232 76.583 138.203 75.7041L138.049 64.3662ZM148.684 66.168C148.684 64.791 148.544 63.3408 148.266 61.8174C147.68 61.8174 147.211 61.8467 146.86 61.9053C146.508 61.9639 146.157 62.0444 145.805 62.147C145.454 62.2495 145.095 62.3667 144.729 62.4985C143.864 62.8062 143.293 63.0698 143.015 63.2896V67.2446L148.684 66.6294V66.168ZM159.296 61.9492L159.252 57.8843L163.933 57.4009L164.702 60.7407L168.063 57.0493H170.678L171.777 62.1909C171.777 62.1909 170.627 62.4399 168.327 62.938C167.229 63.1724 166.093 63.4287 164.921 63.707L164.614 78.7363L159.648 79.1758L159.296 61.9492ZM174.304 64.3662C174.304 62.4033 174.509 61.2681 174.919 60.9604C175.329 60.6528 175.791 60.3452 176.303 60.0376C176.816 59.7153 177.38 59.4004 177.995 59.0928C178.61 58.7852 179.248 58.4922 179.907 58.2139C180.581 57.9355 181.24 57.6865 181.884 57.4668C183.261 56.998 184.287 56.7637 184.96 56.7637C185.649 56.7637 186.206 56.8003 186.63 56.8735C187.055 56.9321 187.443 57.0347 187.795 57.1812C188.601 57.5181 189.055 58.0088 189.157 58.6533C189.641 61.7148 189.882 65.3623 189.882 69.5957V70.8921L179.357 71.0239V73.8804C180.5 74.1587 181.862 74.415 183.444 74.6494L187.224 75.2646C188.19 75.4111 189.179 75.5796 190.19 75.77L188.894 80.582C184.865 79.9521 180.588 78.9341 176.062 77.5278C175.021 77.1909 174.487 76.583 174.458 75.7041L174.304 64.3662ZM184.938 66.168C184.938 64.791 184.799 63.3408 184.521 61.8174C183.935 61.8174 183.466 61.8467 183.115 61.9053C182.763 61.9639 182.412 62.0444 182.06 62.147C181.708 62.2495 181.35 62.3667 180.983 62.4985C180.119 62.8062 179.548 63.0698 179.27 63.2896V67.2446L184.938 66.6294V66.168ZM201.726 53.314C201.726 56.771 200.825 59.752 199.023 62.2568H198.935L195.947 61.7295C196.767 59.9717 197.221 58.0601 197.309 55.9946L195.639 55.731L195.134 50.6113L201.088 49.8423C201.513 51.0435 201.726 52.2007 201.726 53.314ZM206.054 75.4844C206.054 75.4844 207.622 75.3892 210.756 75.1987C212.207 75.1108 213.664 74.9644 215.129 74.7593L215.283 71.9907L207.57 68.9585C207.116 68.7827 206.772 68.4458 206.538 67.9478C206.303 67.4351 206.186 67.0322 206.186 66.7393C206.186 66.4463 206.186 66.2632 206.186 66.1899C206.201 66.1021 206.223 65.9043 206.252 65.5967L206.735 61.4438C206.882 60.272 207.475 59.459 208.515 59.0049C209.16 58.7119 209.973 58.4482 210.954 58.2139C212.961 57.7451 214.367 57.4302 215.173 57.269L217.304 56.8076C217.919 56.6904 218.469 56.5879 218.952 56.5L219.963 61.5317L211.394 62.8062L211.042 64.9155L219.15 68.6948C220.131 69.1489 220.549 70.0205 220.402 71.3096L219.809 76.605C219.677 77.7329 218.762 78.4873 217.062 78.8682C215.246 79.3662 213.232 79.7324 211.02 79.9668C208.823 80.2158 207.373 80.355 206.669 80.3843L206.054 75.4844Z" fill="#BEFF03"/>
<path d="M16.3125 97.7656L4.21875 40.8828L22.5703 36.5938L32.8359 96.6406L34.3125 115.344L37.4766 115.484L49.9219 74.9844L44.5781 48.0547L62.7891 44.8906L71.5781 85.9531L76.5 115.062L80.2969 114.781C80.7656 111.781 81.2812 108.219 81.8438 104.094C83.5781 91.7188 84.7969 82.7188 85.5 77.0938L87.3984 61.5547C88.6641 50.7266 89.5078 42.4531 89.9297 36.7344L109.477 39.6172C109.477 39.6172 108.844 43.6016 107.578 51.5703C104.812 70.0859 101.859 85.3906 98.7188 97.4844L90.8438 128L65.9531 129.125L58.2188 98.3281H56.3906L48.3047 128L22.7109 129.125L16.3125 97.7656Z" fill="#BEFF03"/>
<path d="M125.219 130.25C116.635 129.375 109.906 128.073 105.031 126.344C104.135 126.01 103.542 124.094 103.25 120.594C103 117.385 103.271 114.604 104.062 112.25C104.396 111.271 104.792 110.729 105.25 110.625C107.208 110.104 109.271 109.729 111.438 109.5L117.938 108.781L117.812 104.375C115.542 103.938 113.281 103.594 111.031 103.344C108.802 103.073 106.583 102.76 104.375 102.406L106.031 95.5625L111.312 96.3438C116.146 97.0521 119.99 97.9167 122.844 98.9375C124.219 99.4375 124.906 100.448 124.906 101.969L125.031 119.094L118.375 119.75L118.188 114.406L116.406 114.75C114.406 115.083 112.5 115.5 110.688 116C110.458 117.104 110.344 118.021 110.344 118.75C110.344 119.812 110.385 120.635 110.469 121.219C113.406 121.885 117.938 122.562 124.062 123.25L126.625 123.531L125.219 130.25ZM132.562 83.4062L140.312 81.9688L140.531 104.5L139.562 128L132.969 128.562L132.562 83.4062ZM150.344 126.469C149.323 126.26 148.698 125.354 148.469 123.75C148.094 121.042 147.906 118.167 147.906 115.125C147.906 110.021 148.333 105.229 149.188 100.75C149.396 99.6667 149.917 98.9792 150.75 98.6875L153.875 97.9375C157.229 97.125 160.469 96.5208 163.594 96.125V83.3125L170.844 81.9688L171.031 96.375L170.375 118.344L163.781 118.969L163.531 102.906C161.01 103.094 158.646 103.604 156.438 104.438C155.833 108.167 155.531 111.25 155.531 113.688C155.531 117.167 155.615 119.51 155.781 120.719C158.385 121.406 161.49 121.99 165.094 122.469C168.719 122.948 171.208 123.302 172.562 123.531L170.625 130.25C162.542 128.979 157.552 128.146 155.656 127.75C153.781 127.354 152.01 126.927 150.344 126.469ZM186.875 109.5C186.875 114.521 187.135 118.875 187.656 122.562L193.812 122.25C194.938 117.792 195.5 113.438 195.5 109.188C195.5 107.479 195.385 105.958 195.156 104.625C193.906 104 189.49 103.688 181.906 103.688H180.312C179.875 103.688 179.396 103.708 178.875 103.75L180.219 96.5C180.573 96.4792 180.896 96.4583 181.188 96.4375C181.5 96.3958 181.812 96.375 182.125 96.375L183.062 96.3125C183.375 96.3125 184.25 96.3125 185.688 96.3125C189.812 96.3125 194.333 96.8646 199.25 97.9688C200.812 98.3646 201.771 99.0625 202.125 100.062C202.667 101.604 202.938 104.115 202.938 107.594C202.938 113.948 201.969 120.094 200.031 126.031C199.865 126.573 199.667 127.031 199.438 127.406C199.229 127.781 198.854 128.021 198.312 128.125C197.771 128.25 197.135 128.365 196.406 128.469C195.677 128.573 194.958 128.667 194.25 128.75C192.708 128.896 191.646 128.969 191.062 128.969C190.479 128.969 189.854 128.958 189.188 128.938C188.521 128.938 187.792 128.917 187 128.875C184.917 128.771 183.51 128.583 182.781 128.312C182.052 128.062 181.552 127.625 181.281 127C181.031 126.375 180.781 125.375 180.531 124C179.948 120.792 179.656 117.135 179.656 113.031C179.656 111.469 179.698 109.917 179.781 108.375L186.875 106.969V109.5Z" fill="#BEFF03"/>
<path d="M212.66 114.074C212.496 113.254 212.414 112.469 212.414 111.719C212.414 110.945 212.566 110.348 212.871 109.926C213.176 109.48 213.715 108.906 214.488 108.203C215.285 107.477 216.152 106.727 217.09 105.953L219.938 103.703C220.922 102.977 221.789 102.285 222.539 101.629C222.633 100.832 222.68 99.6836 222.68 98.1836C222.68 96.6602 222.469 94.75 222.047 92.4531C220.359 92.2891 218.637 92.0195 216.879 91.6445L212.625 90.7656C211.57 90.5312 210.562 90.2852 209.602 90.0273L210.762 81.4844L229.43 85.1055C230.789 85.3398 231.422 86.1602 231.328 87.5664L230.625 103C230.625 103.633 230.168 104.348 229.254 105.145L220.57 112.387C220.078 112.879 219.832 113.863 219.832 115.34L212.66 114.074ZM220.605 119.98C221.074 121.293 221.309 123.18 221.309 125.641C221.309 128.078 221.074 129.824 220.605 130.879L212.52 130.562C212.52 126.531 212.402 123.461 212.168 121.352L220.605 119.98Z" fill="#BEFF03"/>
</svg>
